# xmcd
#
# Track frame offsets:
# 150
# 15560
# 28772
# 42050
# 55625
# 69515
# 82537
# 95897
# 108517
# 121507
# 134202
# 146117
# 159242
# 173992
# 188165
# 200292
# 215080
# 235310
# 252225
# 265967
# 280165
# 293360
# 307700
# 321595
#
# Disc length: 4473 seconds
#
# Revision: 0
# Processed by: cddbd v1.4PL0 Copyright (c) Steve Scherf et al.
# Submitted via: Audion 3.0.2 (http://www.panic.com/audion/)
#
DISCID=54117718
DTITLE=Mississippi John Hurt, Richard "Rabbit" Brown, Hambone Willie Newbern - King of the Blues, vol.4
DYEAR=1900
DGENRE=
TTITLE0=Frankie (Hurt)
TTITLE1=Nobody's Dirty Business (Hurt)
TTITLE2=Ain't No Tellin' (Hurt)
TTITLE3=Louis Collins (Hurt)
TTITLE4=Avalon Blues (Hurt)
TTITLE5=Big Leg Blues (Hurt)
TTITLE6=Stack O' Lee Blues (Hurt)
TTITLE7=Candy Man Blues (Hurt)
TTITLE8=Got the Blues Can't Be Satisfied (Hurt)
TTITLE9=Blessed Be the Name (Hurt)
TTITLE10=Praying on the Old Camp Ground (Hurt)
TTITLE11=Blue Harvest Blues (Hurt)
TTITLE12=Spike Driver Blues (Hurt)
TTITLE13=James Alley Blues (Brown)
TTITLE14=Never Let the Same Bee Sting You Twice (Brown)
TTITLE15=I'm Not Jealous (Brown)
TTITLE16=Mystery of the Dunbar's Child (Brown)
TTITLE17=Sinking of the Titanic (Brown)
TTITLE18=She Could Toodle-oo (Newbern)
TTITLE19=Nobody Knows (What the Good Deacon Does) (Newbern)
TTITLE20=Shelby County Workhouse Blues (Newbern)
TTITLE21=Way Down in Arkansas (Newbern)
TTITLE22=Hambone Willy's Dreamy-Eyed Woman's Blues (Newbern)
TTITLE23=Roll and Tumble Blues (Newbern)
EXTD=
EXTT0=
EXTT1=
EXTT2=
EXTT3=
EXTT4=
EXTT5=
EXTT6=
EXTT7=
EXTT8=
EXTT9=
EXTT10=
EXTT11=
EXTT12=
EXTT13=
EXTT14=
EXTT15=
EXTT16=
EXTT17=
EXTT18=
EXTT19=
EXTT20=
EXTT21=
EXTT22=
EXTT23=
PLAYORDER=
